# xmcd
#
# Track frame offsets:
#	150
#	14148
#	27828
#	41110
#
# Disc length: 722 seconds
#
# Revision: 1
# Processed by: cddbd v1.4PL0 Copyright (c) Steve Scherf et al.
# Submitted via: audiograbber 1.80.04
#
DISCID=2f02d004
DTITLE=PCO (as made Popular by Mary Mary) - Shackles Performance Track
DYEAR=2000
DGENRE=Gospel
TTITLE0=Shackles - Demonstration
TTITLE1=Shackles - Performance Track - Gm
TTITLE2=Shackles - Performance Track - Bbm
TTITLE3=Shackles - Performance Track - Em
EXTD=A Performance Track for the song "Shackles"
EXTT0=
EXTT1=
EXTT2=
EXTT3=
PLAYORDER=
